<svg width="40" height="40" viewBox="0 0 40 40" fill="none" xmlns="http://www.w3.org/2000/svg">
<g id="Group 19">
<path id="Vector" d="M19.7341 25.8601C19.4919 25.8601 19.2576 25.7663 19.0701 25.5867L14.414 20.9306C14.0469 20.5635 14.0469 19.9697 14.414 19.6026L33.7412 0.275377C34.1084 -0.0917925 34.7021 -0.0917925 35.0693 0.275377L39.7253 4.9314C40.0925 5.29857 40.0925 5.89229 39.7253 6.25946L20.3981 25.5867C20.2185 25.7663 19.9763 25.8601 19.7341 25.8601ZM16.3983 20.2666L19.7341 23.6024L37.7332 5.59543L34.3975 2.25966L16.3983 20.2588V20.2666Z" fill="#262262"/>
<path id="Vector_2" d="M13.4376 27.5008C13.1954 27.5008 12.9532 27.4071 12.7736 27.2274C12.5392 26.993 12.4454 26.6493 12.5314 26.329L14.1719 20.0324C14.2579 19.7043 14.5078 19.4543 14.836 19.3606C15.1641 19.2747 15.5078 19.3606 15.7422 19.6028L20.3982 24.2588C20.6326 24.4932 20.7263 24.8447 20.6404 25.165C20.5544 25.4853 20.2966 25.7431 19.9685 25.829L13.6719 27.4696C13.5938 27.493 13.5157 27.5008 13.4376 27.5008ZM15.5703 22.087L14.7422 25.2509L17.9061 24.4229L15.5625 22.0792L15.5703 22.087Z" fill="#262262"/>
<path id="Vector_3" d="M34.0609 40.0003H0.937455C0.421855 40.0003 0 39.5784 0 39.0628V5.93941C0 5.42381 0.421855 5.00195 0.937455 5.00195H19.999C20.5146 5.00195 20.9365 5.42381 20.9365 5.93941C20.9365 6.45501 20.5146 6.87686 19.999 6.87686H1.87491V38.1254H33.1234V20.0012C33.1234 19.4856 33.5453 19.0638 34.0609 19.0638C34.5765 19.0638 34.9983 19.4856 34.9983 20.0012V39.0628C34.9983 39.5784 34.5765 40.0003 34.0609 40.0003Z" fill="#1B75BC"/>
</g>
</svg>
